<?xml version="1.0" encoding="utf-8"?>
<!-- Generator: Adobe Illustrator 18.0.0, SVG Export Plug-In . SVG Version: 6.00 Build 0)  -->
<!DOCTYPE svg PUBLIC "-//W3C//DTD SVG 1.1//EN" "http://www.w3.org/Graphics/SVG/1.1/DTD/svg11.dtd">
<svg version="1.1" id="Layer_1" xmlns="http://www.w3.org/2000/svg" xmlns:xlink="http://www.w3.org/1999/xlink" x="0px" y="0px"
	 viewBox="0 0 280 200" enable-background="new 0 0 280 200" xml:space="preserve">
<g>
	
		<radialGradient id="SVGID_1_" cx="587.5082" cy="194.3803" r="130.5686" gradientTransform="matrix(-0.8956 0.6168 -0.3723 -0.5712 735.0137 -143.7288)" gradientUnits="userSpaceOnUse">
		<stop  offset="9.688320e-002" style="stop-color:#FFFFFF;stop-opacity:0"/>
		<stop  offset="0.2717" style="stop-color:#F3FAFC;stop-opacity:0.1936"/>
		<stop  offset="0.5548" style="stop-color:#DBF0F6;stop-opacity:0.5071"/>
		<stop  offset="0.909" style="stop-color:#B2E2EF;stop-opacity:0.8992"/>
		<stop  offset="1" style="stop-color:#A6DEED"/>
	</radialGradient>
	<path opacity="0.4" fill="url(#SVGID_1_)" d="M238,102.8c-11.9,10.5-32.4,25.1-66.2,40.5c0,0,94.7-56.8,65.1-118.2
		c0,0,2.7,33.7-11.8,46.8c0,0,21.9-51.5-55.6-55.2c0,0,36,12.6,29.6,30c0,0-44.2-42.2-130.3,14c0,0,17.9-7.1,27.6-7.1
		c0,0-58.6,21.1-76.4,77.3c0,0,19.5-33.2,51.6-42.4c0,0-58.2,38.5-37,100c0,0-4.7-19.6,10-40.7c0,0-22.8,54.8,64.7,50.6
		c0,0-0.7,0-1.8,0c-6.9-0.2-31.4-2.1-36.4-20.6c0,0,10.9,15.5,53.7,10.3c42.8-5.2,72-33.7,72-33.7s-20,14-65.1,16.4
		c0,0,70.1-4.7,121.2-84.3C252.9,86.4,249.2,92.8,238,102.8"/>
	<path fill="#75D1F5" d="M112.7,184.9c0,0-0.5,0-1.5,0c-5.6-0.2-25.5-1.8-29.6-17.2c0,0,8.9,12.9,43.6,8.6
		c34.8-4.3,58.4-28.2,58.4-28.2s-16.3,11.7-52.9,13.7c0,0,56.9-3.9,98.3-70.4c0,0-15.5,22.3-49.9,37.2c0,0,61-37.2,37-88.4
		c0,0,2.2,28.2-9.6,39.1c0,0,17.7-43-45.1-46.2c0,0,29.2,10.6,24,25c0,0-30.3-32.5-105.7,11.7c0,0,20.7-8.6,43.3-9.4
		c0,0-68.4,21.1-82.8,68.1c0,0,6.3-13.3,35.5-27.8c0,0-46.2,36-23.7,75.9c0,0-6.7-18.8,8.1-34C60.2,142.6,41.7,188.4,112.7,184.9z"
		/>
	<ellipse fill="#FFFFFF" cx="109.2" cy="26.2" rx="1.8" ry="1.9"/>
	<ellipse fill="#FFFFFF" cx="221.9" cy="145.7" rx="1.8" ry="1.9"/>
	<ellipse fill="#FFFFFF" cx="199.2" cy="141.3" rx="1.8" ry="1.9"/>
	<ellipse fill="#FFFFFF" cx="59.5" cy="69.2" rx="1.2" ry="1.2"/>
	<ellipse fill="#FFFFFF" cx="232.2" cy="120.4" rx="1.2" ry="1.2"/>
	<ellipse fill="#FFFFFF" cx="250.1" cy="78.4" rx="1.2" ry="1.2"/>
	<ellipse fill="#FFFFFF" cx="33.6" cy="130.2" rx="1.2" ry="1.2"/>
	<ellipse fill="#FFFFFF" cx="144.8" cy="22.7" rx="1.2" ry="1.2"/>
	<ellipse fill="#FFFFFF" cx="156.5" cy="185.8" rx="1.2" ry="1.2"/>
	<ellipse fill="#FFFFFF" cx="28.4" cy="132.5" rx="1.2" ry="1.2"/>
	<ellipse fill="#FFFFFF" cx="30.5" cy="94.5" rx="0.8" ry="0.8"/>
	<ellipse fill="#FFFFFF" cx="247.1" cy="61.3" rx="0.8" ry="0.8"/>
	<ellipse fill="#FFFFFF" cx="259.8" cy="57.7" rx="0.8" ry="0.8"/>
	<ellipse fill="#FFFFFF" cx="249.8" cy="109.5" rx="0.8" ry="0.8"/>
	<ellipse fill="#FFFFFF" cx="186.5" cy="15.4" rx="0.8" ry="0.8"/>
	<ellipse fill="#FFFFFF" cx="168.4" cy="170.4" rx="0.8" ry="0.8"/>
	<ellipse fill="#FFFFFF" cx="32.3" cy="181.6" rx="0.8" ry="0.8"/>
	<ellipse fill="#FFFFFF" cx="205.9" cy="154.4" rx="0.8" ry="0.8"/>
	<ellipse fill="#FFFFFF" cx="115.8" cy="184.7" rx="0.8" ry="0.8"/>
	<ellipse fill="#FFFFFF" cx="64.1" cy="76.3" rx="0.8" ry="0.8"/>
	<ellipse fill="#A3DDEC" cx="203.8" cy="17.2" rx="1.7" ry="1.7"/>
	<ellipse fill="#A3DDEC" cx="239.4" cy="34.8" rx="1.7" ry="1.7"/>
	<ellipse fill="#A3DDEC" cx="39" cy="85.2" rx="1.7" ry="1.7"/>
	<ellipse fill="#A3DDEC" cx="41.4" cy="185.8" rx="1.7" ry="1.7"/>
	<ellipse fill="#A3DDEC" cx="163.4" cy="46.5" rx="1.3" ry="1.4"/>
	<ellipse fill="#A3DDEC" cx="180" cy="36.7" rx="1.3" ry="1.3"/>
	<ellipse fill="#A3DDEC" cx="230.3" cy="130.4" rx="1.3" ry="1.3"/>
	<ellipse fill="#A3DDEC" cx="250.5" cy="22.7" rx="1.7" ry="1.7"/>
	<ellipse fill="#A3DDEC" cx="174.9" cy="175.7" rx="1.7" ry="1.7"/>
	<polygon fill="#FFFFFF" points="15.6,180.9 15,169.3 3.7,168.6 15,168 15.6,156.4 16.3,168 27.6,168.6 16.3,169.3 	"/>
	<polygon fill="#FFFFFF" points="219.1,91.8 218.7,85.2 212.3,84.8 218.7,84.4 219.1,77.8 219.4,84.4 225.9,84.8 219.4,85.2 	"/>
	<polygon opacity="0.5" fill="#FFFFFF" points="250.8,142.8 249.2,114.4 221.6,112.7 249.2,111.1 250.8,82.7 252.3,111.1 280,112.7 
		252.3,114.4 	"/>
	<polygon fill="#FFFFFF" points="165.7,13.5 165.3,7.1 159.1,6.7 165.3,6.4 165.7,0 166,6.4 172.2,6.7 166,7.1 	"/>
	
		<ellipse transform="matrix(0.8483 -0.5296 0.5296 0.8483 -37.2446 87.0861)" fill="#FFFFFF" cx="133.3" cy="108.5" rx="59.6" ry="36.7"/>
	
		<ellipse transform="matrix(0.8483 -0.5296 0.5296 0.8483 -37.2447 87.0863)" fill="#75D1F5" cx="133.3" cy="108.5" rx="28.8" ry="17.8"/>
	
		<ellipse transform="matrix(0.8483 -0.5296 0.5296 0.8483 -37.2446 87.0858)" fill="#FFFFFF" cx="133.3" cy="108.5" rx="11.8" ry="7.3"/>
	<circle fill="#FFFFFF" cx="183.6" cy="97.6" r="9.3"/>
	<circle fill="#FFFFFF" cx="89" cy="145.6" r="6"/>
	<circle fill="#FFFFFF" cx="167.3" cy="128.9" r="6"/>
	<circle fill="#FFFFFF" cx="143.9" cy="64.4" r="3.6"/>
	<circle fill="#FFFFFF" cx="108.6" cy="80.4" r="2.4"/>
	<circle fill="#FFFFFF" cx="93" cy="95.7" r="4.5"/>
	<circle fill="#FFFFFF" cx="80.8" cy="116.5" r="4.5"/>
	<circle fill="#75D1F5" cx="143.7" cy="121.3" r="3.3"/>
	<circle fill="#75D1F5" cx="130.3" cy="126.5" r="7.9"/>
	<circle fill="#75D1F5" cx="159.1" cy="98" r="4.6"/>
	<circle fill="#75D1F5" cx="119.1" cy="98.3" r="4.5"/>
	<circle fill="#75D1F5" cx="107.6" cy="119.6" r="5.1"/>
	<circle fill="#75D1F5" cx="150" cy="89.1" r="5.4"/>
	<circle fill="#75D1F5" cx="130.3" cy="91.1" r="1.9"/>
	<circle fill="#FFFFFF" cx="136.3" cy="100.7" r="3.5"/>
	<circle fill="#FFFFFF" cx="127.5" cy="115.9" r="3.9"/>
	<circle fill="#FFFFFF" cx="141.3" cy="109.9" r="2.8"/>
	<circle fill="#FFFFFF" cx="124.3" cy="105.7" r="1.8"/>
	<circle fill="#FFFFFF" cx="145.9" cy="98.6" r="1.4"/>
	<circle fill="#FFFFFF" cx="152.2" cy="90.5" r="2.1"/>
	<circle fill="#FFFFFF" cx="149.8" cy="107.8" r="0.4"/>
	<circle fill="#FFFFFF" cx="130" cy="125.1" r="2.1"/>
	<circle fill="#FFFFFF" cx="115.8" cy="114.5" r="1.1"/>
	<circle fill="#FFFFFF" cx="115.5" cy="124.8" r="2.1"/>
	<circle fill="#FFFFFF" cx="121.8" cy="97.2" r="2.1"/>
	<circle fill="#FFFFFF" cx="150.1" cy="108.9" r="1.1"/>
	<circle fill="#FFFFFF" cx="154.7" cy="99" r="1.4"/>
	<circle fill="#75D1F5" cx="135.6" cy="90.8" r="2.1"/>
	<circle fill="#75D1F5" cx="92.5" cy="144.2" r="1.8"/>
	<circle fill="#75D1F5" cx="88.9" cy="132.9" r="1.8"/>
	<circle fill="#75D1F5" cx="94.2" cy="109.2" r="2.8"/>
	<circle fill="#75D1F5" cx="106.3" cy="93" r="3.5"/>
	<circle fill="#75D1F5" cx="101.7" cy="136.4" r="2.5"/>
	<circle fill="#75D1F5" cx="115.1" cy="137.5" r="5.3"/>
	<circle fill="#75D1F5" cx="155.8" cy="127.6" r="0.7"/>
	<circle fill="#75D1F5" cx="168.9" cy="113.8" r="1.4"/>
	<circle fill="#75D1F5" cx="171" cy="85.5" r="2.5"/>
	<circle fill="#75D1F5" cx="154.7" cy="73.1" r="3.9"/>
	<circle fill="#75D1F5" cx="175.6" cy="76.3" r="3.2"/>
	<circle fill="#75D1F5" cx="184.4" cy="98.6" r="3.2"/>
	<circle fill="#75D1F5" cx="172.7" cy="102.5" r="2.1"/>
	<circle fill="#75D1F5" cx="128.9" cy="82.3" r="2.5"/>
	<circle fill="#75D1F5" cx="134.6" cy="74.6" r="1.8"/>
	<circle fill="#75D1F5" cx="141.3" cy="138.2" r="2.1"/>
	<circle fill="#75D1F5" cx="164.3" cy="126.9" r="2.1"/>
	<circle fill="#FFFFFF" cx="159" cy="117.4" r="1.8"/>
	<circle fill="#FFFFFF" cx="115.8" cy="171.1" r="3.5"/>
	<circle fill="#FFFFFF" cx="105.2" cy="164" r="2.5"/>
	<circle fill="#FFFFFF" cx="85.8" cy="163.7" r="1.4"/>
	<circle fill="#FFFFFF" cx="73" cy="154.1" r="0.7"/>
	<circle fill="#FFFFFF" cx="64.5" cy="129.4" r="1.1"/>
	<circle fill="#FFFFFF" cx="70.9" cy="114.9" r="2.1"/>
	<circle fill="#FFFFFF" cx="68.4" cy="143.5" r="2.1"/>
	<circle fill="#FFFFFF" cx="56" cy="138.6" r="2.8"/>
	<circle fill="#FFFFFF" cx="71.6" cy="91.2" r="3.2"/>
	<circle fill="#FFFFFF" cx="61.7" cy="100.4" r="1.4"/>
	<circle fill="#FFFFFF" cx="82.9" cy="94.4" r="0.7"/>
	<circle fill="#FFFFFF" cx="93.9" cy="80.9" r="1.4"/>
	<circle fill="#FFFFFF" cx="104.8" cy="72.8" r="2.5"/>
	<circle fill="#FFFFFF" cx="120.4" cy="65" r="3.2"/>
	<circle fill="#FFFFFF" cx="117.2" cy="54.1" r="2.5"/>
	<circle fill="#FFFFFF" cx="154.4" cy="53.3" r="2.8"/>
	<circle fill="#FFFFFF" cx="168.1" cy="53.3" r="2.5"/>
	<circle fill="#FFFFFF" cx="175.6" cy="51.6" r="1.4"/>
	<circle fill="#FFFFFF" cx="136.7" cy="48" r="1.4"/>
	<circle fill="#FFFFFF" cx="178" cy="62.5" r="1.4"/>
	<circle fill="#FFFFFF" cx="199.3" cy="67.5" r="1.8"/>
	<circle fill="#FFFFFF" cx="199.3" cy="86.2" r="2.5"/>
	<circle fill="#FFFFFF" cx="197.9" cy="101.4" r="1.1"/>
	<circle fill="#FFFFFF" cx="184.8" cy="115.9" r="2.5"/>
	<circle fill="#FFFFFF" cx="183.4" cy="132.6" r="2.5"/>
	<circle fill="#FFFFFF" cx="160" cy="146.3" r="2.1"/>
	<circle fill="#FFFFFF" cx="135.6" cy="166.2" r="2.1"/>
	<circle fill="#FFFFFF" cx="142" cy="154.5" r="1.4"/>
	<circle fill="#FFFFFF" cx="193.6" cy="126.2" r="3.2"/>
	<circle fill="#FFFFFF" cx="204.9" cy="118.4" r="1.1"/>
	<circle fill="#FFFFFF" cx="197.5" cy="49.5" r="1.4"/>
	<circle fill="#FFFFFF" cx="220.1" cy="58.6" r="0.7"/>
	<circle fill="#FFFFFF" cx="184.8" cy="38.8" r="0.7"/>
	<circle fill="#FFFFFF" cx="155.1" cy="164" r="1.1"/>
	<circle fill="#FFFFFF" cx="69.1" cy="169" r="2.8"/>
	<circle fill="#FFFFFF" cx="82.9" cy="180.7" r="2.5"/>
	<circle fill="#FFFFFF" cx="89.3" cy="184.9" r="1.4"/>
	<circle fill="#FFFFFF" cx="46.1" cy="154.5" r="1.1"/>
	<circle fill="#FFFFFF" cx="47.9" cy="113.1" r="1.1"/>
	<circle fill="#FFFFFF" cx="52.5" cy="97.5" r="0.7"/>
	<circle fill="#FFFFFF" cx="220.3" cy="73.9" r="1.2"/>
	<circle fill="#FFFFFF" cx="222.1" cy="67" r="0.9"/>
	<circle fill="#FFFFFF" cx="209.9" cy="98" r="0.9"/>
	<circle fill="#FFFFFF" cx="207.8" cy="118.5" r="1.5"/>
	<circle fill="#FFFFFF" cx="212.9" cy="108.7" r="0.6"/>
	<circle fill="#FFFFFF" cx="204" cy="103.4" r="1.2"/>
	<circle fill="#FFFFFF" cx="209.9" cy="72.4" r="0.9"/>
	<circle fill="#FFFFFF" cx="205.2" cy="55.1" r="1.5"/>
	<circle fill="#FFFFFF" cx="195.6" cy="42.6" r="0.9"/>
	<circle fill="#FFFFFF" cx="177.5" cy="40.8" r="0.9"/>
	<circle fill="#FFFFFF" cx="183.1" cy="46.8" r="0.6"/>
	<circle fill="#FFFFFF" cx="148.9" cy="45.9" r="1.8"/>
	<circle fill="#FFFFFF" cx="97.4" cy="57.2" r="0.9"/>
	<circle fill="#FFFFFF" cx="89" cy="63.8" r="0.9"/>
	<circle fill="#FFFFFF" cx="81.9" cy="75.1" r="2.1"/>
	<circle fill="#FFFFFF" cx="80.4" cy="62" r="0.6"/>
	<circle fill="#FFFFFF" cx="89.9" cy="36.1" r="2.1"/>
	<circle fill="#FFFFFF" cx="46.5" cy="69.7" r="0.9"/>
	<circle fill="#FFFFFF" cx="73.3" cy="161.1" r="1.2"/>
	<circle fill="#FFFFFF" cx="57.5" cy="162.3" r="1.2"/>
	<circle fill="#FFFFFF" cx="44.7" cy="139.7" r="1.8"/>
	<circle fill="#FFFFFF" cx="49.7" cy="120" r="1.5"/>
	<circle fill="#FFFFFF" cx="42.9" cy="116.2" r="1.8"/>
	<circle fill="#FFFFFF" cx="173.9" cy="157.5" r="1.2"/>
	<circle fill="#FFFFFF" cx="176" cy="143" r="2.7"/>
	<circle fill="#FFFFFF" cx="130.7" cy="173.3" r="0.9"/>
	<circle fill="#FFFFFF" cx="131.9" cy="182.6" r="1.5"/>
	<circle fill="#FFFFFF" cx="142.3" cy="178.7" r="1.5"/>
	<circle fill="#75D1F5" cx="202.4" cy="49.9" r="1.3"/>
	<circle fill="#75D1F5" cx="221.4" cy="56" r="1"/>
	<circle fill="#75D1F5" cx="190.2" cy="147" r="1"/>
	<circle fill="#75D1F5" cx="125.4" cy="42.9" r="1"/>
	<circle fill="#75D1F5" cx="216.4" cy="49.3" r="1.6"/>
	<circle fill="#75D1F5" cx="169" cy="33.7" r="1.6"/>
	<circle fill="#75D1F5" cx="186.9" cy="57.6" r="1.9"/>
	<circle fill="#75D1F5" cx="127.8" cy="50.9" r="3.1"/>
	<circle fill="#75D1F5" cx="214.9" cy="91.9" r="3.1"/>
	<circle fill="#75D1F5" cx="191.2" cy="133.7" r="3.1"/>
	<circle fill="#75D1F5" cx="203.9" cy="49.5" r="3.1"/>
	<circle fill="#75D1F5" cx="206.3" cy="66.1" r="5.1"/>
	<circle fill="#75D1F5" cx="106" cy="56.8" r="2.9"/>
	<circle fill="#75D1F5" cx="97.9" cy="72.8" r="1"/>
	<circle fill="#75D1F5" cx="76.9" cy="83.9" r="2.9"/>
	<circle fill="#75D1F5" cx="62.1" cy="93.1" r="1.6"/>
	<circle fill="#75D1F5" cx="60.3" cy="117.1" r="2.6"/>
	<circle fill="#75D1F5" cx="52.1" cy="129.6" r="2.6"/>
	<circle fill="#75D1F5" cx="46.3" cy="145.9" r="1.9"/>
	<circle fill="#75D1F5" cx="60.6" cy="155.7" r="2.6"/>
	<circle fill="#75D1F5" cx="92.7" cy="172.5" r="3.2"/>
	<circle fill="#75D1F5" cx="148.2" cy="168.8" r="2.3"/>
	<circle fill="#75D1F5" cx="165.3" cy="150.1" r="2.9"/>
	<circle fill="#75D1F5" cx="199.1" cy="119.5" r="2.6"/>
	<circle fill="#75D1F5" cx="201.7" cy="108.2" r="2.3"/>
	<circle fill="#75D1F5" cx="213.3" cy="89.5" r="1.9"/>
	<circle fill="#75D1F5" cx="198.8" cy="155.7" r="1.9"/>
	<circle fill="#75D1F5" cx="218" cy="108.5" r="1.9"/>
	<circle fill="#75D1F5" cx="158.6" cy="157.5" r="1.9"/>
	<circle fill="#75D1F5" cx="188.5" cy="37.9" r="1.3"/>
	<circle fill="#75D1F5" cx="227.5" cy="75.7" r="0.6"/>
	<circle fill="#75D1F5" cx="207.2" cy="128.5" r="1"/>
	<circle fill="#75D1F5" cx="187.2" cy="140.5" r="1.3"/>
	<circle fill="#75D1F5" cx="165" cy="161.1" r="2.3"/>
	<circle fill="#75D1F5" cx="122.7" cy="179.2" r="1.6"/>
	<circle fill="#75D1F5" cx="101.1" cy="178.2" r="2.3"/>
	<circle fill="#75D1F5" cx="82.4" cy="174" r="1.6"/>
	<circle fill="#75D1F5" cx="68.3" cy="175.7" r="2.3"/>
	<ellipse fill="#A3DDEC" cx="221.4" cy="47" rx="0.7" ry="0.7"/>
	<ellipse fill="#A3DDEC" cx="139.3" cy="44.2" rx="0.7" ry="0.7"/>
</g>
</svg>
